<mxfile host="app.diagrams.net" agent="Mozilla/5.0 (Windows NT 10.0; Win64; x64) AppleWebKit/537.36 (KHTML, like Gecko) Chrome/128.0.0.0 Safari/537.36 OPR/114.0.0.0" version="26.0.3">
  <diagram id="6a731a19-8d31-9384-78a2-239565b7b9f0" name="Page-1">
    <mxGraphModel dx="3145" dy="1280" grid="1" gridSize="10" guides="1" tooltips="1" connect="1" arrows="1" fold="1" page="1" pageScale="1" pageWidth="827" pageHeight="1169" background="none" math="0" shadow="0">
      <root>
        <mxCell id="0" />
        <mxCell id="1" parent="0" />
        <mxCell id="nmAjtVOGxiwD0WqTTQxq-2369" value="" style="ellipse;whiteSpace=wrap;html=1;strokeColor=#E6FFCC;fillColor=#E6FFCC;" vertex="1" parent="1">
          <mxGeometry x="600" y="60" width="820" height="1130" as="geometry" />
        </mxCell>
        <mxCell id="nmAjtVOGxiwD0WqTTQxq-2368" value="" style="ellipse;whiteSpace=wrap;html=1;strokeColor=#33FFFF;fillColor=#33FFFF;" vertex="1" parent="1">
          <mxGeometry x="-360" y="60" width="810" height="1130" as="geometry" />
        </mxCell>
        <mxCell id="nmAjtVOGxiwD0WqTTQxq-2257" value="" style="shape=mxgraph.cisco.routers.router;sketch=0;html=1;pointerEvents=1;dashed=0;fillColor=#036897;strokeColor=#ffffff;strokeWidth=2;verticalLabelPosition=bottom;verticalAlign=top;align=center;outlineConnect=0;" vertex="1" parent="1">
          <mxGeometry x="494" y="609" width="52" height="51" as="geometry" />
        </mxCell>
        <mxCell id="nmAjtVOGxiwD0WqTTQxq-2272" style="edgeStyle=orthogonalEdgeStyle;rounded=0;orthogonalLoop=1;jettySize=auto;html=1;exitX=0;exitY=0.5;exitDx=0;exitDy=0;exitPerimeter=0;strokeColor=#3333FF;" edge="1" parent="1" source="nmAjtVOGxiwD0WqTTQxq-2258" target="nmAjtVOGxiwD0WqTTQxq-2262">
          <mxGeometry relative="1" as="geometry">
            <Array as="points">
              <mxPoint x="216" y="200" />
            </Array>
          </mxGeometry>
        </mxCell>
        <mxCell id="nmAjtVOGxiwD0WqTTQxq-2273" style="edgeStyle=orthogonalEdgeStyle;rounded=0;orthogonalLoop=1;jettySize=auto;html=1;exitX=0;exitY=0.5;exitDx=0;exitDy=0;exitPerimeter=0;strokeColor=#3333FF;" edge="1" parent="1" source="nmAjtVOGxiwD0WqTTQxq-2258" target="nmAjtVOGxiwD0WqTTQxq-2270">
          <mxGeometry relative="1" as="geometry">
            <Array as="points">
              <mxPoint x="216" y="300" />
            </Array>
          </mxGeometry>
        </mxCell>
        <mxCell id="nmAjtVOGxiwD0WqTTQxq-2274" style="edgeStyle=orthogonalEdgeStyle;rounded=0;orthogonalLoop=1;jettySize=auto;html=1;exitX=0;exitY=0.5;exitDx=0;exitDy=0;exitPerimeter=0;strokeColor=#3333FF;" edge="1" parent="1" source="nmAjtVOGxiwD0WqTTQxq-2258" target="nmAjtVOGxiwD0WqTTQxq-2268">
          <mxGeometry relative="1" as="geometry">
            <Array as="points">
              <mxPoint x="216" y="400" />
            </Array>
          </mxGeometry>
        </mxCell>
        <mxCell id="nmAjtVOGxiwD0WqTTQxq-2275" style="edgeStyle=orthogonalEdgeStyle;rounded=0;orthogonalLoop=1;jettySize=auto;html=1;exitX=0;exitY=0.5;exitDx=0;exitDy=0;exitPerimeter=0;strokeColor=#3333FF;" edge="1" parent="1" source="nmAjtVOGxiwD0WqTTQxq-2258" target="nmAjtVOGxiwD0WqTTQxq-2271">
          <mxGeometry relative="1" as="geometry">
            <Array as="points">
              <mxPoint x="216" y="495" />
            </Array>
          </mxGeometry>
        </mxCell>
        <mxCell id="nmAjtVOGxiwD0WqTTQxq-2276" style="edgeStyle=orthogonalEdgeStyle;rounded=0;orthogonalLoop=1;jettySize=auto;html=1;exitX=0;exitY=0.5;exitDx=0;exitDy=0;exitPerimeter=0;strokeColor=#3333FF;" edge="1" parent="1" source="nmAjtVOGxiwD0WqTTQxq-2258" target="nmAjtVOGxiwD0WqTTQxq-2266">
          <mxGeometry relative="1" as="geometry" />
        </mxCell>
        <mxCell id="nmAjtVOGxiwD0WqTTQxq-2281" style="edgeStyle=orthogonalEdgeStyle;rounded=0;orthogonalLoop=1;jettySize=auto;html=1;exitX=0;exitY=0.5;exitDx=0;exitDy=0;exitPerimeter=0;strokeColor=#3333FF;" edge="1" parent="1" source="nmAjtVOGxiwD0WqTTQxq-2258" target="nmAjtVOGxiwD0WqTTQxq-2267">
          <mxGeometry relative="1" as="geometry">
            <Array as="points">
              <mxPoint x="216" y="1000" />
            </Array>
          </mxGeometry>
        </mxCell>
        <mxCell id="nmAjtVOGxiwD0WqTTQxq-2282" style="edgeStyle=orthogonalEdgeStyle;rounded=0;orthogonalLoop=1;jettySize=auto;html=1;exitX=0;exitY=0.5;exitDx=0;exitDy=0;exitPerimeter=0;strokeColor=#3333FF;" edge="1" parent="1" source="nmAjtVOGxiwD0WqTTQxq-2258" target="nmAjtVOGxiwD0WqTTQxq-2269">
          <mxGeometry relative="1" as="geometry">
            <Array as="points">
              <mxPoint x="216" y="1095" />
            </Array>
          </mxGeometry>
        </mxCell>
        <mxCell id="nmAjtVOGxiwD0WqTTQxq-2258" value="" style="shape=mxgraph.cisco.switches.workgroup_switch;sketch=0;html=1;pointerEvents=1;dashed=0;fillColor=#036897;strokeColor=#ffffff;strokeWidth=2;verticalLabelPosition=bottom;verticalAlign=top;align=center;outlineConnect=0;" vertex="1" parent="1">
          <mxGeometry x="216" y="609" width="101" height="50" as="geometry" />
        </mxCell>
        <mxCell id="nmAjtVOGxiwD0WqTTQxq-2260" style="edgeStyle=orthogonalEdgeStyle;rounded=0;orthogonalLoop=1;jettySize=auto;html=1;exitX=0;exitY=0.5;exitDx=0;exitDy=0;exitPerimeter=0;entryX=0.98;entryY=0.5;entryDx=0;entryDy=0;entryPerimeter=0;strokeColor=#3333FF;" edge="1" parent="1" source="nmAjtVOGxiwD0WqTTQxq-2257" target="nmAjtVOGxiwD0WqTTQxq-2258">
          <mxGeometry relative="1" as="geometry" />
        </mxCell>
        <mxCell id="nmAjtVOGxiwD0WqTTQxq-2261" style="edgeStyle=orthogonalEdgeStyle;rounded=0;orthogonalLoop=1;jettySize=auto;html=1;exitX=1;exitY=0.5;exitDx=0;exitDy=0;exitPerimeter=0;entryX=0;entryY=0.5;entryDx=0;entryDy=0;entryPerimeter=0;strokeColor=#00FF00;" edge="1" parent="1" source="nmAjtVOGxiwD0WqTTQxq-2257">
          <mxGeometry relative="1" as="geometry">
            <mxPoint x="726" y="634" as="targetPoint" />
          </mxGeometry>
        </mxCell>
        <mxCell id="nmAjtVOGxiwD0WqTTQxq-2262" value="" style="shape=mxgraph.cisco.computers_and_peripherals.pc;html=1;pointerEvents=1;dashed=0;fillColor=#036897;strokeColor=#ffffff;strokeWidth=2;verticalLabelPosition=bottom;verticalAlign=top;align=center;outlineConnect=0;" vertex="1" parent="1">
          <mxGeometry x="-78" y="160" width="78" height="70" as="geometry" />
        </mxCell>
        <mxCell id="nmAjtVOGxiwD0WqTTQxq-2263" value="" style="shape=mxgraph.cisco.computers_and_peripherals.pc;html=1;pointerEvents=1;dashed=0;fillColor=#036897;strokeColor=#ffffff;strokeWidth=2;verticalLabelPosition=bottom;verticalAlign=top;align=center;outlineConnect=0;" vertex="1" parent="1">
          <mxGeometry x="-80" y="860" width="78" height="70" as="geometry" />
        </mxCell>
        <mxCell id="nmAjtVOGxiwD0WqTTQxq-2264" value="" style="shape=mxgraph.cisco.computers_and_peripherals.pc;html=1;pointerEvents=1;dashed=0;fillColor=#036897;strokeColor=#ffffff;strokeWidth=2;verticalLabelPosition=bottom;verticalAlign=top;align=center;outlineConnect=0;" vertex="1" parent="1">
          <mxGeometry x="-80" y="760" width="78" height="70" as="geometry" />
        </mxCell>
        <mxCell id="nmAjtVOGxiwD0WqTTQxq-2265" value="" style="shape=mxgraph.cisco.computers_and_peripherals.pc;html=1;pointerEvents=1;dashed=0;fillColor=#036897;strokeColor=#ffffff;strokeWidth=2;verticalLabelPosition=bottom;verticalAlign=top;align=center;outlineConnect=0;" vertex="1" parent="1">
          <mxGeometry x="-80" y="660" width="78" height="70" as="geometry" />
        </mxCell>
        <mxCell id="nmAjtVOGxiwD0WqTTQxq-2266" value="" style="shape=mxgraph.cisco.computers_and_peripherals.pc;html=1;pointerEvents=1;dashed=0;fillColor=#036897;strokeColor=#ffffff;strokeWidth=2;verticalLabelPosition=bottom;verticalAlign=top;align=center;outlineConnect=0;" vertex="1" parent="1">
          <mxGeometry x="-80" y="560" width="78" height="70" as="geometry" />
        </mxCell>
        <mxCell id="nmAjtVOGxiwD0WqTTQxq-2267" value="" style="shape=mxgraph.cisco.computers_and_peripherals.pc;html=1;pointerEvents=1;dashed=0;fillColor=#036897;strokeColor=#ffffff;strokeWidth=2;verticalLabelPosition=bottom;verticalAlign=top;align=center;outlineConnect=0;" vertex="1" parent="1">
          <mxGeometry x="-80" y="960" width="78" height="70" as="geometry" />
        </mxCell>
        <mxCell id="nmAjtVOGxiwD0WqTTQxq-2268" value="" style="shape=mxgraph.cisco.computers_and_peripherals.pc;html=1;pointerEvents=1;dashed=0;fillColor=#036897;strokeColor=#ffffff;strokeWidth=2;verticalLabelPosition=bottom;verticalAlign=top;align=center;outlineConnect=0;" vertex="1" parent="1">
          <mxGeometry x="-78" y="360" width="78" height="70" as="geometry" />
        </mxCell>
        <mxCell id="nmAjtVOGxiwD0WqTTQxq-2269" value="" style="shape=mxgraph.cisco.computers_and_peripherals.pc;html=1;pointerEvents=1;dashed=0;fillColor=#036897;strokeColor=#ffffff;strokeWidth=2;verticalLabelPosition=bottom;verticalAlign=top;align=center;outlineConnect=0;" vertex="1" parent="1">
          <mxGeometry x="-80" y="1060" width="78" height="70" as="geometry" />
        </mxCell>
        <mxCell id="nmAjtVOGxiwD0WqTTQxq-2270" value="" style="shape=mxgraph.cisco.computers_and_peripherals.pc;html=1;pointerEvents=1;dashed=0;fillColor=#036897;strokeColor=#ffffff;strokeWidth=2;verticalLabelPosition=bottom;verticalAlign=top;align=center;outlineConnect=0;" vertex="1" parent="1">
          <mxGeometry x="-80" y="260" width="78" height="70" as="geometry" />
        </mxCell>
        <mxCell id="nmAjtVOGxiwD0WqTTQxq-2271" value="" style="shape=mxgraph.cisco.computers_and_peripherals.pc;html=1;pointerEvents=1;dashed=0;fillColor=#036897;strokeColor=#ffffff;strokeWidth=2;verticalLabelPosition=bottom;verticalAlign=top;align=center;outlineConnect=0;" vertex="1" parent="1">
          <mxGeometry x="-80" y="460" width="78" height="70" as="geometry" />
        </mxCell>
        <mxCell id="nmAjtVOGxiwD0WqTTQxq-2278" style="edgeStyle=orthogonalEdgeStyle;rounded=0;orthogonalLoop=1;jettySize=auto;html=1;exitX=0;exitY=0.5;exitDx=0;exitDy=0;exitPerimeter=0;entryX=0.997;entryY=0.571;entryDx=0;entryDy=0;entryPerimeter=0;strokeColor=#3333FF;" edge="1" parent="1" source="nmAjtVOGxiwD0WqTTQxq-2258" target="nmAjtVOGxiwD0WqTTQxq-2265">
          <mxGeometry relative="1" as="geometry">
            <Array as="points">
              <mxPoint x="216" y="700" />
            </Array>
          </mxGeometry>
        </mxCell>
        <mxCell id="nmAjtVOGxiwD0WqTTQxq-2279" style="edgeStyle=orthogonalEdgeStyle;rounded=0;orthogonalLoop=1;jettySize=auto;html=1;exitX=0;exitY=0.5;exitDx=0;exitDy=0;exitPerimeter=0;entryX=0.965;entryY=0.536;entryDx=0;entryDy=0;entryPerimeter=0;strokeColor=#3333FF;" edge="1" parent="1" source="nmAjtVOGxiwD0WqTTQxq-2258" target="nmAjtVOGxiwD0WqTTQxq-2264">
          <mxGeometry relative="1" as="geometry">
            <Array as="points">
              <mxPoint x="216" y="798" />
            </Array>
          </mxGeometry>
        </mxCell>
        <mxCell id="nmAjtVOGxiwD0WqTTQxq-2280" style="edgeStyle=orthogonalEdgeStyle;rounded=0;orthogonalLoop=1;jettySize=auto;html=1;exitX=0;exitY=0.5;exitDx=0;exitDy=0;exitPerimeter=0;entryX=0.997;entryY=0.482;entryDx=0;entryDy=0;entryPerimeter=0;strokeColor=#3333FF;" edge="1" parent="1" source="nmAjtVOGxiwD0WqTTQxq-2258" target="nmAjtVOGxiwD0WqTTQxq-2263">
          <mxGeometry relative="1" as="geometry">
            <Array as="points">
              <mxPoint x="216" y="894" />
            </Array>
          </mxGeometry>
        </mxCell>
        <mxCell id="nmAjtVOGxiwD0WqTTQxq-2291" value="" style="shape=mxgraph.cisco.computers_and_peripherals.pc;html=1;pointerEvents=1;dashed=0;fillColor=#036897;strokeColor=#ffffff;strokeWidth=2;verticalLabelPosition=bottom;verticalAlign=top;align=center;outlineConnect=0;direction=east;flipV=0;flipH=0;" vertex="1" parent="1">
          <mxGeometry x="1060.001111111113" y="160" width="78" height="70" as="geometry" />
        </mxCell>
        <mxCell id="nmAjtVOGxiwD0WqTTQxq-2292" value="" style="shape=mxgraph.cisco.computers_and_peripherals.pc;html=1;pointerEvents=1;dashed=0;fillColor=#036897;strokeColor=#ffffff;strokeWidth=2;verticalLabelPosition=bottom;verticalAlign=top;align=center;outlineConnect=0;direction=east;flipV=0;flipH=0;" vertex="1" parent="1">
          <mxGeometry x="1062.001111111113" y="860" width="78" height="70" as="geometry" />
        </mxCell>
        <mxCell id="nmAjtVOGxiwD0WqTTQxq-2293" value="" style="shape=mxgraph.cisco.computers_and_peripherals.pc;html=1;pointerEvents=1;dashed=0;fillColor=#036897;strokeColor=#ffffff;strokeWidth=2;verticalLabelPosition=bottom;verticalAlign=top;align=center;outlineConnect=0;direction=east;flipV=0;flipH=0;" vertex="1" parent="1">
          <mxGeometry x="1062.001111111113" y="760" width="78" height="70" as="geometry" />
        </mxCell>
        <mxCell id="nmAjtVOGxiwD0WqTTQxq-2294" value="" style="shape=mxgraph.cisco.computers_and_peripherals.pc;html=1;pointerEvents=1;dashed=0;fillColor=#036897;strokeColor=#ffffff;strokeWidth=2;verticalLabelPosition=bottom;verticalAlign=top;align=center;outlineConnect=0;direction=east;flipV=0;flipH=0;" vertex="1" parent="1">
          <mxGeometry x="1062.001111111113" y="660" width="78" height="70" as="geometry" />
        </mxCell>
        <mxCell id="nmAjtVOGxiwD0WqTTQxq-2295" value="" style="shape=mxgraph.cisco.computers_and_peripherals.pc;html=1;pointerEvents=1;dashed=0;fillColor=#036897;strokeColor=#ffffff;strokeWidth=2;verticalLabelPosition=bottom;verticalAlign=top;align=center;outlineConnect=0;direction=east;flipV=0;flipH=0;" vertex="1" parent="1">
          <mxGeometry x="1062.001111111113" y="560" width="78" height="70" as="geometry" />
        </mxCell>
        <mxCell id="nmAjtVOGxiwD0WqTTQxq-2296" value="" style="shape=mxgraph.cisco.computers_and_peripherals.pc;html=1;pointerEvents=1;dashed=0;fillColor=#036897;strokeColor=#ffffff;strokeWidth=2;verticalLabelPosition=bottom;verticalAlign=top;align=center;outlineConnect=0;direction=east;flipV=0;flipH=0;" vertex="1" parent="1">
          <mxGeometry x="1062.001111111113" y="960" width="78" height="70" as="geometry" />
        </mxCell>
        <mxCell id="nmAjtVOGxiwD0WqTTQxq-2297" value="" style="shape=mxgraph.cisco.computers_and_peripherals.pc;html=1;pointerEvents=1;dashed=0;fillColor=#036897;strokeColor=#ffffff;strokeWidth=2;verticalLabelPosition=bottom;verticalAlign=top;align=center;outlineConnect=0;direction=east;flipV=0;flipH=0;" vertex="1" parent="1">
          <mxGeometry x="1060.001111111113" y="360" width="78" height="70" as="geometry" />
        </mxCell>
        <mxCell id="nmAjtVOGxiwD0WqTTQxq-2298" value="" style="shape=mxgraph.cisco.computers_and_peripherals.pc;html=1;pointerEvents=1;dashed=0;fillColor=#036897;strokeColor=#ffffff;strokeWidth=2;verticalLabelPosition=bottom;verticalAlign=top;align=center;outlineConnect=0;direction=east;flipV=0;flipH=0;" vertex="1" parent="1">
          <mxGeometry x="1062.001111111113" y="1060" width="78" height="70" as="geometry" />
        </mxCell>
        <mxCell id="nmAjtVOGxiwD0WqTTQxq-2299" value="" style="shape=mxgraph.cisco.computers_and_peripherals.pc;html=1;pointerEvents=1;dashed=0;fillColor=#036897;strokeColor=#ffffff;strokeWidth=2;verticalLabelPosition=bottom;verticalAlign=top;align=center;outlineConnect=0;direction=east;flipV=0;flipH=0;" vertex="1" parent="1">
          <mxGeometry x="1062.001111111113" y="260" width="78" height="70" as="geometry" />
        </mxCell>
        <mxCell id="nmAjtVOGxiwD0WqTTQxq-2300" value="" style="shape=mxgraph.cisco.computers_and_peripherals.pc;html=1;pointerEvents=1;dashed=0;fillColor=#036897;strokeColor=#ffffff;strokeWidth=2;verticalLabelPosition=bottom;verticalAlign=top;align=center;outlineConnect=0;direction=east;flipV=0;flipH=0;" vertex="1" parent="1">
          <mxGeometry x="1062.001111111113" y="460" width="78" height="70" as="geometry" />
        </mxCell>
        <mxCell id="nmAjtVOGxiwD0WqTTQxq-2311" style="edgeStyle=orthogonalEdgeStyle;rounded=0;orthogonalLoop=1;jettySize=auto;html=1;exitX=0.98;exitY=0.5;exitDx=0;exitDy=0;exitPerimeter=0;entryX=0.16;entryY=0.5;entryDx=0;entryDy=0;entryPerimeter=0;strokeColor=#00FF00;" edge="1" parent="1" source="nmAjtVOGxiwD0WqTTQxq-2306" target="nmAjtVOGxiwD0WqTTQxq-2291">
          <mxGeometry relative="1" as="geometry">
            <mxPoint x="825.3076923076924" y="200" as="targetPoint" />
            <Array as="points">
              <mxPoint x="825" y="195" />
            </Array>
          </mxGeometry>
        </mxCell>
        <mxCell id="nmAjtVOGxiwD0WqTTQxq-2312" style="edgeStyle=orthogonalEdgeStyle;rounded=0;orthogonalLoop=1;jettySize=auto;html=1;exitX=0.98;exitY=0.5;exitDx=0;exitDy=0;exitPerimeter=0;strokeColor=#00FF00;" edge="1" parent="1" source="nmAjtVOGxiwD0WqTTQxq-2306" target="nmAjtVOGxiwD0WqTTQxq-2299">
          <mxGeometry relative="1" as="geometry">
            <Array as="points">
              <mxPoint x="825" y="310" />
            </Array>
          </mxGeometry>
        </mxCell>
        <mxCell id="nmAjtVOGxiwD0WqTTQxq-2313" style="edgeStyle=orthogonalEdgeStyle;rounded=0;orthogonalLoop=1;jettySize=auto;html=1;exitX=0.98;exitY=0.5;exitDx=0;exitDy=0;exitPerimeter=0;strokeColor=#00FF00;" edge="1" parent="1" source="nmAjtVOGxiwD0WqTTQxq-2306" target="nmAjtVOGxiwD0WqTTQxq-2297">
          <mxGeometry relative="1" as="geometry">
            <Array as="points">
              <mxPoint x="825" y="400" />
            </Array>
          </mxGeometry>
        </mxCell>
        <mxCell id="nmAjtVOGxiwD0WqTTQxq-2314" style="edgeStyle=orthogonalEdgeStyle;rounded=0;orthogonalLoop=1;jettySize=auto;html=1;exitX=0.98;exitY=0.5;exitDx=0;exitDy=0;exitPerimeter=0;strokeColor=#00FF00;" edge="1" parent="1" source="nmAjtVOGxiwD0WqTTQxq-2306" target="nmAjtVOGxiwD0WqTTQxq-2300">
          <mxGeometry relative="1" as="geometry">
            <Array as="points">
              <mxPoint x="825" y="500" />
            </Array>
          </mxGeometry>
        </mxCell>
        <mxCell id="nmAjtVOGxiwD0WqTTQxq-2315" style="edgeStyle=orthogonalEdgeStyle;rounded=0;orthogonalLoop=1;jettySize=auto;html=1;exitX=0.98;exitY=0.5;exitDx=0;exitDy=0;exitPerimeter=0;strokeColor=#00FF00;" edge="1" parent="1" source="nmAjtVOGxiwD0WqTTQxq-2306" target="nmAjtVOGxiwD0WqTTQxq-2295">
          <mxGeometry relative="1" as="geometry" />
        </mxCell>
        <mxCell id="nmAjtVOGxiwD0WqTTQxq-2316" style="edgeStyle=orthogonalEdgeStyle;rounded=0;orthogonalLoop=1;jettySize=auto;html=1;exitX=0.98;exitY=0.5;exitDx=0;exitDy=0;exitPerimeter=0;strokeColor=#00FF00;" edge="1" parent="1" source="nmAjtVOGxiwD0WqTTQxq-2306" target="nmAjtVOGxiwD0WqTTQxq-2294">
          <mxGeometry relative="1" as="geometry">
            <Array as="points">
              <mxPoint x="825" y="700" />
            </Array>
          </mxGeometry>
        </mxCell>
        <mxCell id="nmAjtVOGxiwD0WqTTQxq-2317" style="edgeStyle=orthogonalEdgeStyle;rounded=0;orthogonalLoop=1;jettySize=auto;html=1;exitX=0.98;exitY=0.5;exitDx=0;exitDy=0;exitPerimeter=0;strokeColor=#00FF00;" edge="1" parent="1" source="nmAjtVOGxiwD0WqTTQxq-2306" target="nmAjtVOGxiwD0WqTTQxq-2293">
          <mxGeometry relative="1" as="geometry">
            <Array as="points">
              <mxPoint x="825" y="800" />
            </Array>
          </mxGeometry>
        </mxCell>
        <mxCell id="nmAjtVOGxiwD0WqTTQxq-2318" style="edgeStyle=orthogonalEdgeStyle;rounded=0;orthogonalLoop=1;jettySize=auto;html=1;exitX=0.98;exitY=0.5;exitDx=0;exitDy=0;exitPerimeter=0;strokeColor=#00FF00;" edge="1" parent="1" source="nmAjtVOGxiwD0WqTTQxq-2306" target="nmAjtVOGxiwD0WqTTQxq-2292">
          <mxGeometry relative="1" as="geometry">
            <Array as="points">
              <mxPoint x="825" y="900" />
            </Array>
          </mxGeometry>
        </mxCell>
        <mxCell id="nmAjtVOGxiwD0WqTTQxq-2319" style="edgeStyle=orthogonalEdgeStyle;rounded=0;orthogonalLoop=1;jettySize=auto;html=1;exitX=0.98;exitY=0.5;exitDx=0;exitDy=0;exitPerimeter=0;strokeColor=#00FF00;" edge="1" parent="1" source="nmAjtVOGxiwD0WqTTQxq-2306" target="nmAjtVOGxiwD0WqTTQxq-2296">
          <mxGeometry relative="1" as="geometry">
            <Array as="points">
              <mxPoint x="825" y="1000" />
            </Array>
          </mxGeometry>
        </mxCell>
        <mxCell id="nmAjtVOGxiwD0WqTTQxq-2320" style="edgeStyle=orthogonalEdgeStyle;rounded=0;orthogonalLoop=1;jettySize=auto;html=1;exitX=0.98;exitY=0.5;exitDx=0;exitDy=0;exitPerimeter=0;strokeColor=#00FF00;" edge="1" parent="1" source="nmAjtVOGxiwD0WqTTQxq-2306" target="nmAjtVOGxiwD0WqTTQxq-2298">
          <mxGeometry relative="1" as="geometry">
            <Array as="points">
              <mxPoint x="825" y="1100" />
            </Array>
          </mxGeometry>
        </mxCell>
        <mxCell id="nmAjtVOGxiwD0WqTTQxq-2306" value="" style="shape=mxgraph.cisco.switches.workgroup_switch;sketch=0;html=1;pointerEvents=1;dashed=0;fillColor=#036897;strokeColor=#ffffff;strokeWidth=2;verticalLabelPosition=bottom;verticalAlign=top;align=center;outlineConnect=0;direction=east;flipV=0;flipH=0;" vertex="1" parent="1">
          <mxGeometry x="726" y="614" width="101" height="41" as="geometry" />
        </mxCell>
        <mxCell id="nmAjtVOGxiwD0WqTTQxq-2321" value="G0/0/0" style="text;html=1;align=center;verticalAlign=middle;whiteSpace=wrap;rounded=0;" vertex="1" parent="1">
          <mxGeometry x="434" y="640" width="60" height="30" as="geometry" />
        </mxCell>
        <mxCell id="nmAjtVOGxiwD0WqTTQxq-2322" value="G0/0/1" style="text;html=1;align=center;verticalAlign=middle;whiteSpace=wrap;rounded=0;" vertex="1" parent="1">
          <mxGeometry x="546" y="640" width="60" height="30" as="geometry" />
        </mxCell>
        <mxCell id="nmAjtVOGxiwD0WqTTQxq-2323" value="F0/24" style="text;html=1;align=center;verticalAlign=middle;whiteSpace=wrap;rounded=0;" vertex="1" parent="1">
          <mxGeometry x="317" y="640" width="60" height="30" as="geometry" />
        </mxCell>
        <mxCell id="nmAjtVOGxiwD0WqTTQxq-2324" value="F0/24" style="text;html=1;align=center;verticalAlign=middle;whiteSpace=wrap;rounded=0;" vertex="1" parent="1">
          <mxGeometry x="660" y="640" width="60" height="30" as="geometry" />
        </mxCell>
        <mxCell id="nmAjtVOGxiwD0WqTTQxq-2325" value="F0/1" style="text;html=1;align=center;verticalAlign=middle;whiteSpace=wrap;rounded=0;" vertex="1" parent="1">
          <mxGeometry x="10" y="160" width="60" height="30" as="geometry" />
        </mxCell>
        <mxCell id="nmAjtVOGxiwD0WqTTQxq-2326" value="F0/2" style="text;html=1;align=center;verticalAlign=middle;whiteSpace=wrap;rounded=0;" vertex="1" parent="1">
          <mxGeometry x="10" y="260" width="60" height="30" as="geometry" />
        </mxCell>
        <mxCell id="nmAjtVOGxiwD0WqTTQxq-2327" value="F0/3" style="text;html=1;align=center;verticalAlign=middle;whiteSpace=wrap;rounded=0;" vertex="1" parent="1">
          <mxGeometry x="10" y="360" width="60" height="30" as="geometry" />
        </mxCell>
        <mxCell id="nmAjtVOGxiwD0WqTTQxq-2328" value="F0/4" style="text;html=1;align=center;verticalAlign=middle;whiteSpace=wrap;rounded=0;" vertex="1" parent="1">
          <mxGeometry x="10" y="460" width="60" height="30" as="geometry" />
        </mxCell>
        <mxCell id="nmAjtVOGxiwD0WqTTQxq-2329" value="F0/5" style="text;html=1;align=center;verticalAlign=middle;whiteSpace=wrap;rounded=0;" vertex="1" parent="1">
          <mxGeometry x="10" y="560" width="60" height="30" as="geometry" />
        </mxCell>
        <mxCell id="nmAjtVOGxiwD0WqTTQxq-2330" value="F0/6" style="text;html=1;align=center;verticalAlign=middle;whiteSpace=wrap;rounded=0;" vertex="1" parent="1">
          <mxGeometry x="10" y="660" width="60" height="30" as="geometry" />
        </mxCell>
        <mxCell id="nmAjtVOGxiwD0WqTTQxq-2331" value="F0/7" style="text;html=1;align=center;verticalAlign=middle;whiteSpace=wrap;rounded=0;" vertex="1" parent="1">
          <mxGeometry x="10" y="760" width="60" height="30" as="geometry" />
        </mxCell>
        <mxCell id="nmAjtVOGxiwD0WqTTQxq-2332" value="F0/8" style="text;html=1;align=center;verticalAlign=middle;whiteSpace=wrap;rounded=0;" vertex="1" parent="1">
          <mxGeometry x="10" y="860" width="60" height="30" as="geometry" />
        </mxCell>
        <mxCell id="nmAjtVOGxiwD0WqTTQxq-2333" value="F0/9" style="text;html=1;align=center;verticalAlign=middle;whiteSpace=wrap;rounded=0;" vertex="1" parent="1">
          <mxGeometry x="10" y="960" width="60" height="30" as="geometry" />
        </mxCell>
        <mxCell id="nmAjtVOGxiwD0WqTTQxq-2334" value="F0/10" style="text;html=1;align=center;verticalAlign=middle;whiteSpace=wrap;rounded=0;" vertex="1" parent="1">
          <mxGeometry x="10" y="1060" width="60" height="30" as="geometry" />
        </mxCell>
        <mxCell id="nmAjtVOGxiwD0WqTTQxq-2335" value="F0/1" style="text;html=1;align=center;verticalAlign=middle;whiteSpace=wrap;rounded=0;" vertex="1" parent="1">
          <mxGeometry x="990" y="160" width="60" height="30" as="geometry" />
        </mxCell>
        <mxCell id="nmAjtVOGxiwD0WqTTQxq-2336" value="F0/2" style="text;html=1;align=center;verticalAlign=middle;whiteSpace=wrap;rounded=0;" vertex="1" parent="1">
          <mxGeometry x="990" y="260" width="60" height="30" as="geometry" />
        </mxCell>
        <mxCell id="nmAjtVOGxiwD0WqTTQxq-2337" value="F0/3" style="text;html=1;align=center;verticalAlign=middle;whiteSpace=wrap;rounded=0;" vertex="1" parent="1">
          <mxGeometry x="990" y="360" width="60" height="30" as="geometry" />
        </mxCell>
        <mxCell id="nmAjtVOGxiwD0WqTTQxq-2338" value="F0/4" style="text;html=1;align=center;verticalAlign=middle;whiteSpace=wrap;rounded=0;" vertex="1" parent="1">
          <mxGeometry x="990" y="460" width="60" height="30" as="geometry" />
        </mxCell>
        <mxCell id="nmAjtVOGxiwD0WqTTQxq-2339" value="F0/5" style="text;html=1;align=center;verticalAlign=middle;whiteSpace=wrap;rounded=0;" vertex="1" parent="1">
          <mxGeometry x="990" y="560" width="60" height="30" as="geometry" />
        </mxCell>
        <mxCell id="nmAjtVOGxiwD0WqTTQxq-2340" value="F0/6" style="text;html=1;align=center;verticalAlign=middle;whiteSpace=wrap;rounded=0;" vertex="1" parent="1">
          <mxGeometry x="990" y="660" width="60" height="30" as="geometry" />
        </mxCell>
        <mxCell id="nmAjtVOGxiwD0WqTTQxq-2341" value="F0/7" style="text;html=1;align=center;verticalAlign=middle;whiteSpace=wrap;rounded=0;" vertex="1" parent="1">
          <mxGeometry x="990" y="760" width="60" height="30" as="geometry" />
        </mxCell>
        <mxCell id="nmAjtVOGxiwD0WqTTQxq-2342" value="F0/8" style="text;html=1;align=center;verticalAlign=middle;whiteSpace=wrap;rounded=0;" vertex="1" parent="1">
          <mxGeometry x="990" y="860" width="60" height="30" as="geometry" />
        </mxCell>
        <mxCell id="nmAjtVOGxiwD0WqTTQxq-2343" value="F0/9" style="text;html=1;align=center;verticalAlign=middle;whiteSpace=wrap;rounded=0;" vertex="1" parent="1">
          <mxGeometry x="990" y="960" width="60" height="30" as="geometry" />
        </mxCell>
        <mxCell id="nmAjtVOGxiwD0WqTTQxq-2344" value="F0/10" style="text;html=1;align=center;verticalAlign=middle;whiteSpace=wrap;rounded=0;" vertex="1" parent="1">
          <mxGeometry x="990" y="1060" width="60" height="30" as="geometry" />
        </mxCell>
        <mxCell id="nmAjtVOGxiwD0WqTTQxq-2345" value="PC0" style="text;html=1;align=center;verticalAlign=middle;whiteSpace=wrap;rounded=0;" vertex="1" parent="1">
          <mxGeometry x="-160" y="180" width="60" height="30" as="geometry" />
        </mxCell>
        <mxCell id="nmAjtVOGxiwD0WqTTQxq-2346" value="PC1" style="text;html=1;align=center;verticalAlign=middle;whiteSpace=wrap;rounded=0;" vertex="1" parent="1">
          <mxGeometry x="-160" y="280" width="60" height="30" as="geometry" />
        </mxCell>
        <mxCell id="nmAjtVOGxiwD0WqTTQxq-2347" value="PC2" style="text;html=1;align=center;verticalAlign=middle;whiteSpace=wrap;rounded=0;" vertex="1" parent="1">
          <mxGeometry x="-160" y="380" width="60" height="30" as="geometry" />
        </mxCell>
        <mxCell id="nmAjtVOGxiwD0WqTTQxq-2348" value="PC3" style="text;html=1;align=center;verticalAlign=middle;whiteSpace=wrap;rounded=0;" vertex="1" parent="1">
          <mxGeometry x="-160" y="480" width="60" height="30" as="geometry" />
        </mxCell>
        <mxCell id="nmAjtVOGxiwD0WqTTQxq-2349" value="PC4" style="text;html=1;align=center;verticalAlign=middle;whiteSpace=wrap;rounded=0;" vertex="1" parent="1">
          <mxGeometry x="-160" y="580" width="60" height="30" as="geometry" />
        </mxCell>
        <mxCell id="nmAjtVOGxiwD0WqTTQxq-2350" value="PC5" style="text;html=1;align=center;verticalAlign=middle;whiteSpace=wrap;rounded=0;" vertex="1" parent="1">
          <mxGeometry x="-160" y="680" width="60" height="30" as="geometry" />
        </mxCell>
        <mxCell id="nmAjtVOGxiwD0WqTTQxq-2351" value="PC6" style="text;html=1;align=center;verticalAlign=middle;whiteSpace=wrap;rounded=0;" vertex="1" parent="1">
          <mxGeometry x="-160" y="780" width="60" height="30" as="geometry" />
        </mxCell>
        <mxCell id="nmAjtVOGxiwD0WqTTQxq-2352" value="PC7" style="text;html=1;align=center;verticalAlign=middle;whiteSpace=wrap;rounded=0;" vertex="1" parent="1">
          <mxGeometry x="-160" y="880" width="60" height="30" as="geometry" />
        </mxCell>
        <mxCell id="nmAjtVOGxiwD0WqTTQxq-2353" value="PC8" style="text;html=1;align=center;verticalAlign=middle;whiteSpace=wrap;rounded=0;" vertex="1" parent="1">
          <mxGeometry x="-160" y="980" width="60" height="30" as="geometry" />
        </mxCell>
        <mxCell id="nmAjtVOGxiwD0WqTTQxq-2354" value="PC9" style="text;html=1;align=center;verticalAlign=middle;whiteSpace=wrap;rounded=0;" vertex="1" parent="1">
          <mxGeometry x="-160" y="1080" width="60" height="30" as="geometry" />
        </mxCell>
        <mxCell id="nmAjtVOGxiwD0WqTTQxq-2355" value="PC0" style="text;html=1;align=center;verticalAlign=middle;whiteSpace=wrap;rounded=0;" vertex="1" parent="1">
          <mxGeometry x="1160" y="180" width="60" height="30" as="geometry" />
        </mxCell>
        <mxCell id="nmAjtVOGxiwD0WqTTQxq-2356" value="PC1" style="text;html=1;align=center;verticalAlign=middle;whiteSpace=wrap;rounded=0;" vertex="1" parent="1">
          <mxGeometry x="1160" y="280" width="60" height="30" as="geometry" />
        </mxCell>
        <mxCell id="nmAjtVOGxiwD0WqTTQxq-2357" value="PC2" style="text;html=1;align=center;verticalAlign=middle;whiteSpace=wrap;rounded=0;" vertex="1" parent="1">
          <mxGeometry x="1160" y="380" width="60" height="30" as="geometry" />
        </mxCell>
        <mxCell id="nmAjtVOGxiwD0WqTTQxq-2358" value="PC3" style="text;html=1;align=center;verticalAlign=middle;whiteSpace=wrap;rounded=0;" vertex="1" parent="1">
          <mxGeometry x="1160" y="480" width="60" height="30" as="geometry" />
        </mxCell>
        <mxCell id="nmAjtVOGxiwD0WqTTQxq-2359" value="PC4" style="text;html=1;align=center;verticalAlign=middle;whiteSpace=wrap;rounded=0;" vertex="1" parent="1">
          <mxGeometry x="1160" y="580" width="60" height="30" as="geometry" />
        </mxCell>
        <mxCell id="nmAjtVOGxiwD0WqTTQxq-2360" value="PC5" style="text;html=1;align=center;verticalAlign=middle;whiteSpace=wrap;rounded=0;" vertex="1" parent="1">
          <mxGeometry x="1160" y="680" width="60" height="30" as="geometry" />
        </mxCell>
        <mxCell id="nmAjtVOGxiwD0WqTTQxq-2361" value="PC6" style="text;html=1;align=center;verticalAlign=middle;whiteSpace=wrap;rounded=0;" vertex="1" parent="1">
          <mxGeometry x="1160" y="780" width="60" height="30" as="geometry" />
        </mxCell>
        <mxCell id="nmAjtVOGxiwD0WqTTQxq-2362" value="PC7" style="text;html=1;align=center;verticalAlign=middle;whiteSpace=wrap;rounded=0;" vertex="1" parent="1">
          <mxGeometry x="1160" y="880" width="60" height="30" as="geometry" />
        </mxCell>
        <mxCell id="nmAjtVOGxiwD0WqTTQxq-2363" value="PC8" style="text;html=1;align=center;verticalAlign=middle;whiteSpace=wrap;rounded=0;" vertex="1" parent="1">
          <mxGeometry x="1160" y="980" width="60" height="30" as="geometry" />
        </mxCell>
        <mxCell id="nmAjtVOGxiwD0WqTTQxq-2364" value="PC9" style="text;html=1;align=center;verticalAlign=middle;whiteSpace=wrap;rounded=0;" vertex="1" parent="1">
          <mxGeometry x="1160" y="1080" width="60" height="30" as="geometry" />
        </mxCell>
        <mxCell id="nmAjtVOGxiwD0WqTTQxq-2365" value="SwitchLinks" style="text;html=1;align=center;verticalAlign=middle;whiteSpace=wrap;rounded=0;" vertex="1" parent="1">
          <mxGeometry x="236.5" y="659" width="60" height="30" as="geometry" />
        </mxCell>
        <mxCell id="nmAjtVOGxiwD0WqTTQxq-2366" value="SwitchRechts" style="text;html=1;align=center;verticalAlign=middle;whiteSpace=wrap;rounded=0;" vertex="1" parent="1">
          <mxGeometry x="726" y="660" width="60" height="30" as="geometry" />
        </mxCell>
        <mxCell id="nmAjtVOGxiwD0WqTTQxq-2367" value="Router" style="text;html=1;align=center;verticalAlign=middle;whiteSpace=wrap;rounded=0;" vertex="1" parent="1">
          <mxGeometry x="486" y="670" width="60" height="30" as="geometry" />
        </mxCell>
        <mxCell id="nmAjtVOGxiwD0WqTTQxq-2370" value="Netwerk 192.168.1.0" style="text;html=1;align=center;verticalAlign=middle;whiteSpace=wrap;rounded=0;" vertex="1" parent="1">
          <mxGeometry x="292" y="830" width="110" height="30" as="geometry" />
        </mxCell>
        <mxCell id="nmAjtVOGxiwD0WqTTQxq-2371" value="Netwerk 192.168.2.0" style="text;html=1;align=center;verticalAlign=middle;whiteSpace=wrap;rounded=0;" vertex="1" parent="1">
          <mxGeometry x="670" y="830" width="110" height="30" as="geometry" />
        </mxCell>
      </root>
    </mxGraphModel>
  </diagram>
</mxfile>
